<svg xmlns="http://www.w3.org/2000/svg" viewBox="0 0 32 32">
  <!-- Background -->
  <rect width="32" height="32" rx="8" fill="#000000"/>
  
  <!-- Rounded letter M -->
  <path d="M8 24 
           C8 24, 8 8, 8 8
           C8 8, 10 8, 12 8
           C14 8, 16 14, 16 14
           C16 14, 18 8, 20 8
           C22 8, 24 8, 24 8
           C24 8, 24 24, 24 24
           C24 24, 22 24, 20 24
           C20 24, 20 16, 20 16
           L16 22
           L12 16
           C12 16, 12 24, 12 24
           Z" 
        fill="#ffffff" 
        stroke="none"/>
</svg>
